<!-- <svg id="Layer_1" data-name="Layer 1" xmlns="http://www.w3.org/2000/svg" viewBox="0 0 220 220"><defs><style>.cls-1{fill:#fff;}.cls-2{fill:#227bef;}</style></defs><ellipse class="cls-1" cx="111.75" cy="108.23" rx="98.57" ry="100.54"/><path class="cls-1" d="M212.39,108.55A100.88,100.88,0,1,0,95.71,208.23V137.72H70.11V108.55h25.6V86.34c0-25.27,15.06-39.25,38.14-39.25a154.26,154.26,0,0,1,22.57,2V73.88H143.68c-12.53,0-16.43,7.82-16.43,15.76v18.91h28l-4.44,29.17H127.25v70.51a101,101,0,0,0,85.14-99.68"/><path class="cls-2" d="M212.39,108.55A100.88,100.88,0,1,0,95.71,208.23V137.72H70.11V108.55h25.6V86.34c0-25.27,15.06-39.25,38.14-39.25a154.26,154.26,0,0,1,22.57,2V73.88H143.68c-12.53,0-16.43,7.82-16.43,15.76v18.91h28l-4.44,29.17H127.25v70.51a101,101,0,0,0,85.14-99.68"/></svg> -->
<svg xmlns="http://www.w3.org/2000/svg" height="1em" viewBox="0 0 448 512" fill="#B3B3B3"><!--! Font Awesome Free 6.4.2 by @fontawesome - https://fontawesome.com License - https://fontawesome.com/license (Commercial License) Copyright 2023 Fonticons, Inc. --><path d="M400 32H48A48 48 0 0 0 0 80v352a48 48 0 0 0 48 48h137.25V327.69h-63V256h63v-54.64c0-62.15 37-96.48 93.67-96.48 27.14 0 55.52 4.84 55.52 4.84v61h-31.27c-30.81 0-40.42 19.12-40.42 38.73V256h68.78l-11 71.69h-57.78V480H400a48 48 0 0 0 48-48V80a48 48 0 0 0-48-48z"/></svg>
