<!-- <svg id="Layer_1" data-name="Layer 1" xmlns="http://www.w3.org/2000/svg" viewBox="0 0 234 220"><defs><style>.cls-1{fill:#fff;}.cls-2{fill:#0f70c5;}</style></defs><circle class="cls-1" cx="116.5" cy="109.46" r="100.54"/><path class="cls-2" d="M116.5,8.92A100.54,100.54,0,1,0,217,109.46,100.54,100.54,0,0,0,116.5,8.92ZM83.31,164.39c-7.15-.08-14.3-.06-21.45,0-1.15,0-1.49-.28-1.49-1.46q0-38.23,0-76.47c0-1,.26-1.43,1.38-1.42,7.25,0,14.51.06,21.77,0,1.39,0,1.58.53,1.58,1.72q-.06,19,0,38.08c0,12.59,0,25.18,0,37.77C85.11,164,84.76,164.41,83.31,164.39ZM72.75,74.12a14.28,14.28,0,1,1,14.3-14.35A14.39,14.39,0,0,1,72.75,74.12Zm104.87,88.63c0,1.31-.36,1.65-1.64,1.64q-10.74-.09-21.47,0c-1.26,0-1.53-.38-1.52-1.57q.06-19.83,0-39.65a35.57,35.57,0,0,0-1.15-9.84c-1.71-5.93-6-9-12.17-8.62-8.48.44-12.9,4.64-14,13.27a49.49,49.49,0,0,0-.38,6.2c0,12.85,0,25.71,0,38.56,0,1.28-.32,1.66-1.63,1.65-7.21-.07-14.41-.06-21.62,0-1.16,0-1.49-.3-1.49-1.47q0-38.17,0-76.34c0-1.26.41-1.55,1.6-1.54q10.28.07,20.53,0c1.26,0,1.59.39,1.56,1.58-.07,3,0,6.09,0,9.13,1.65-1.86,3-3.74,4.71-5.34a25.84,25.84,0,0,1,18.58-7.33,42.92,42.92,0,0,1,11.68,1.42C168,87,173.05,93,175.47,101.55c1.81,6.39,2.15,13,2.16,19.54C177.65,135,177.59,148.87,177.62,162.75Z"/></svg> -->
<svg xmlns="http://www.w3.org/2000/svg" height="1em" viewBox="0 0 448 512" fill="#B3B3B3"><!--! Font Awesome Free 6.4.2 by @fontawesome - https://fontawesome.com License - https://fontawesome.com/license (Commercial License) Copyright 2023 Fonticons, Inc. --><path d="M100.28 448H7.4V148.9h92.88zM53.79 108.1C24.09 108.1 0 83.5 0 53.8a53.79 53.79 0 0 1 107.58 0c0 29.7-24.1 54.3-53.79 54.3zM447.9 448h-92.68V302.4c0-34.7-.7-79.2-48.29-79.2-48.29 0-55.69 37.7-55.69 76.7V448h-92.78V148.9h89.08v40.8h1.3c12.4-23.5 42.69-48.3 87.88-48.3 94 0 111.28 61.9 111.28 142.3V448z"/></svg>