<svg id="Layer_1" data-name="Layer 1" xmlns="http://www.w3.org/2000/svg" viewBox="0 0 240 213">
<defs><style>.cls-1{fill:#B3B3B3;fill-rule:evenodd;}</style></defs>
<path class="cls-1" d="M173.49,129.3c-5.51-3.25-12.75-6.89-19.29-4.28-5,2-8.18,9.74-11.54,13.69-1.65,2-3.58,2.37-6.16,1.31a86.29,86.29,0,0,1-43.7-36.74c-1.77-2.65-1.48-4.71.68-7.23,3.12-3.6,7.07-7.74,8-12.6s-1.5-10.66-3.52-15C95.27,62.88,92.34,55,86.66,51.81c-5.29-2.89-12.19-1.29-16.85,2.4C61.82,60.67,58,70.76,58.16,80.7a37.83,37.83,0,0,0,1,8.42,70.29,70.29,0,0,0,8.18,18.54,138.83,138.83,0,0,0,8.58,12.81,131.56,131.56,0,0,0,37.17,33.87,110.9,110.9,0,0,0,23,10.77c9.24,2.95,17.25,6.06,27.08,4.18,10.17-1.86,20.34-8.08,24.41-17.79a14.39,14.39,0,0,0,1.08-9.11c-1.34-6.32-10-10.06-15.18-13.09"/></svg>