<svg id="Layer_1" data-name="Layer 1" xmlns="http://www.w3.org/2000/svg" viewBox="0 0 168.35 138.27" fill="#adacacc7"><defs><style>.cls-1{fill:#231f20;}</style></defs><path class="cls-1" d="M59.2,115.49c19.56,6.07,37.12,3.55,53.19-7.89,10.26-7.3,19.07-20.08,20.08-28.91-3.58,3.52-6.8,7-10.69,9.8-25,17.94-60.61,12.26-78.68-12.56-.61-.85-.87-2.46-2.17-2.23s-1.39,1.88-1.79,3c-1.06,2.94-.69,5.91-.06,8.89.76,3.65-.34,6.16-3.19,7.64-3.11,1.6-5.82.84-8.25-1.44-6.26-5.87-5.55-17.35,1.65-22.36a7.36,7.36,0,0,0,3.42-6.25C35,32.77,62.57,9.41,93.12,11.79a57.68,57.68,0,0,1,22,6.37c1,.54,2.29.93,3.07,2.46-20-6.61-38.26-3.43-54.76,9.11A49.8,49.8,0,0,0,45,57c3-2.53,5.56-5.39,8.61-7.79,25-19.64,61.8-14.73,80.58,10.76.68.92,1,2.74,2.35,2.47s1.47-2,1.88-3.3a15,15,0,0,0,.07-8.24c-.9-3.88.23-6.7,3-8,3.21-1.57,6.41-.85,9,2,5.75,6.39,4.4,17.38-3,22.36a5.24,5.24,0,0,0-2.61,4.59c-1.24,25.55-20.5,46.8-46.81,51.65-13.36,2.46-25.93,0-37.73-6.67C60.1,116.67,59.94,116.34,59.2,115.49ZM74,50.43c-8.42,1.43-22.36,10-27.05,16.23-1.06,1.42-.41,2.19.48,3.12,23.27,24.45,60.37,23.59,82.53,0,1.47-1.57,1.07-2.45-.23-3.83A57.06,57.06,0,0,0,106,50.9c-.78-.27-1.59-.92-2.48-.2,3.45,10.35,1.94,17.5-4.74,22.55-5.59,4.22-14.19,4.23-20.07,0C72.14,68.55,70.58,61.2,74,50.43ZM88.76,70.77A11.15,11.15,0,0,0,100,59.59a11.54,11.54,0,0,0-11.3-11.32A11.18,11.18,0,0,0,77.6,59.63C77.64,66.16,82.27,70.78,88.76,70.77Z"/></svg>