<svg id="Layer_1" data-name="Layer 1" xmlns="http://www.w3.org/2000/svg" viewBox="0 0 422 160"><defs>
<style>.cls-1{fill:#fff;}.cls-2{fill:#e8232a;}</style></defs><rect x="120.14" y="115.67" width="169.48" height="21.46" rx="1.65"/><path class="cls-1" d="M155.11,123.71h-8.5v2.94h5.86v2.07h-5.86v2.94h8.5v2.08h-8.5a2.12,2.12,0,0,1-1.57-.54,2,2,0,0,1-.55-1.54v-8a2,2,0,0,1,.55-1.55,2.16,2.16,0,0,1,1.57-.53h8.5Z"/><path class="cls-1" d="M159.45,133.5a2.25,2.25,0,0,1-.79-1.08l-3.24-9.06h2.26l2.62,7.42a.33.33,0,0,0,.14.19.41.41,0,0,0,.46,0,.38.38,0,0,0,.14-.19l2.62-7.42h2.25l-3.25,9.06a2.2,2.2,0,0,1-.8,1.08,2,2,0,0,1-1.19.39A2.06,2.06,0,0,1,159.45,133.5Z"/><path class="cls-1" d="M176.53,129.21a.9.9,0,0,1-.67.27l-7.77,0a3.5,3.5,0,0,0,1.24,1.74,3.28,3.28,0,0,0,2,.7,3.32,3.32,0,0,0,1.51-.36,3.19,3.19,0,0,0,1.2-1l2,.64a5.66,5.66,0,0,1-2,2,5.55,5.55,0,0,1-5.47,0,5.32,5.32,0,0,1-2-1.95,5.29,5.29,0,0,1,2-7.31,5.49,5.49,0,0,1,7.45,2,5.25,5.25,0,0,1,.73,2.69A.9.9,0,0,1,176.53,129.21Zm-7.28-3.27a3.27,3.27,0,0,0-1.21,1.85l6.64,0a3.35,3.35,0,0,0-1.2-1.87,3.24,3.24,0,0,0-2.11-.76A3.31,3.31,0,0,0,169.25,125.94Z"/><path class="cls-1" d="M184.88,123.9a5.42,5.42,0,0,1,2,2,5,5,0,0,1,.74,2.67v5.21H185.5v-5.21a3,3,0,0,0-.46-1.63,3.42,3.42,0,0,0-1.22-1.2,3.21,3.21,0,0,0-1.66-.45,3.35,3.35,0,0,0-2.54,1.15v7.34h-2.11v-7.23a2.55,2.55,0,0,1,.11-.77,1.64,1.64,0,0,1,.35-.63,5.66,5.66,0,0,1,1.86-1.42,5.45,5.45,0,0,1,5,.21Z"/><path class="cls-1" d="M195.18,125.44h-4.4v5a1.16,1.16,0,0,0,.36.86,1.22,1.22,0,0,0,.87.35h3.17v2.08H192a3.34,3.34,0,0,1-1.68-.44,3.39,3.39,0,0,1-1.21-1.2,3.15,3.15,0,0,1-.45-1.65v-8.82h2.11v1.73h4.4Z"/><path class="cls-1" d="M196.48,133.74v-2.08H202a1,1,0,0,0,.77-.31,1.06,1.06,0,0,0,.3-.76,1,1,0,0,0-.31-.74,1.07,1.07,0,0,0-.76-.3h-2.62a3.1,3.1,0,0,1-1.59-.42,3.17,3.17,0,0,1-1.14-1.13,3.11,3.11,0,0,1,0-3.12,3.14,3.14,0,0,1,1.14-1.12,3.1,3.1,0,0,1,1.59-.42h5v2.08h-5a1,1,0,0,0-.74.29,1,1,0,0,0,0,1.46,1,1,0,0,0,.74.31H202a3.17,3.17,0,0,1,1.61.42,3.12,3.12,0,0,1,1.15,1.13,3,3,0,0,1,.43,1.56,3,3,0,0,1-.44,1.58,3.1,3.1,0,0,1-1.16,1.14,3.13,3.13,0,0,1-1.59.43Z"/><path class="cls-1" d="M222,133.74l-.83-2.53h-6.56l-.83,2.53h-2.23l3.5-10.59a2.64,2.64,0,0,1,1.08-1.41,3.13,3.13,0,0,1,1.77-.54,2.94,2.94,0,0,1,1.74.54,2.74,2.74,0,0,1,1.08,1.41l3.5,10.59Zm-6.72-4.55h5.21l-1.76-5.34a.8.8,0,0,0-.32-.42.9.9,0,0,0-.51-.15,1,1,0,0,0-.53.15.77.77,0,0,0-.33.42Z"/><path class="cls-1" d="M228.22,121a3,3,0,0,0-1.08,1,2.69,2.69,0,0,0-.48,1.36h4.14v2.08h-4.16v8.3h-2.11V123.62a4.82,4.82,0,0,1,.69-2.52,5.15,5.15,0,0,1,4.43-2.53,4.91,4.91,0,0,1,1.47.23,5.65,5.65,0,0,1,1.37.62l-1.17,1.75a2.85,2.85,0,0,0-1.67-.52A3,3,0,0,0,228.22,121Z"/><path class="cls-1" d="M232.84,126.51a2.57,2.57,0,0,1,.1-.77,1.66,1.66,0,0,1,.36-.63,5.56,5.56,0,0,1,1.86-1.42,5.28,5.28,0,0,1,2.32-.52,5.45,5.45,0,0,1,2.75.74l-1.06,1.8a3.25,3.25,0,0,0-1.69-.46,3.57,3.57,0,0,0-1.32.26,3.23,3.23,0,0,0-1.09.77.57.57,0,0,0-.12.37v7.09h-2.11Z"/><path class="cls-1" d="M241.59,121.49a1.16,1.16,0,0,1-.37-.88,1.18,1.18,0,0,1,.37-.88,1.21,1.21,0,0,1,.89-.36,1.25,1.25,0,0,1,.9.36,1.18,1.18,0,0,1,.37.88,1.16,1.16,0,0,1-.37.88,1.22,1.22,0,0,1-.9.37A1.19,1.19,0,0,1,241.59,121.49Zm-.16,12.25V123.36h2.11v10.38Z"/><path class="cls-1" d="M247.31,133.17a5.29,5.29,0,0,1-2-1.95,5.24,5.24,0,0,1,0-5.37,5.27,5.27,0,0,1,2-1.94,5.61,5.61,0,0,1,5.5,0,5.14,5.14,0,0,1,2,1.94l-1.6,1a3.6,3.6,0,0,0-4.84-1.27,3.41,3.41,0,0,0-1.28,1.25,3.39,3.39,0,0,0,0,3.46,3.59,3.59,0,0,0,1.27,1.27,3.37,3.37,0,0,0,1.76.48,3.57,3.57,0,0,0,1.76-.45,3.23,3.23,0,0,0,1.28-1.23l1.64.92a5.44,5.44,0,0,1-2,2,5.36,5.36,0,0,1-2.74.71A5.45,5.45,0,0,1,247.31,133.17Z"/><path class="cls-1" d="M262,123.36a3.54,3.54,0,0,1,3,1.73,3.29,3.29,0,0,1,.48,1.73v4.65a2.19,2.19,0,0,1-.67,1.61,2.25,2.25,0,0,1-1.64.66H258.9a3.27,3.27,0,0,1-1.65-.42,3.1,3.1,0,0,1-1.16-1.14,3.19,3.19,0,0,1-.42-1.63,3.15,3.15,0,0,1,1.61-2.75,3.14,3.14,0,0,1,1.62-.43h4.47v-.55a1.31,1.31,0,0,0-.41-1,1.37,1.37,0,0,0-1-.4h-5v-2.08Zm.95,8.3a.44.44,0,0,0,.45-.45v-1.9H258.9a1.1,1.1,0,0,0-.83.35,1.13,1.13,0,0,0-.35.83,1.1,1.1,0,0,0,1.18,1.17Z"/><ellipse class="cls-1" cx="273.5" cy="126.23" rx="2.69" ry="2.65"/><ellipse class="cls-1" cx="136.27" cy="126.23" rx="2.69" ry="2.65"/><path class="cls-2" d="M200.4,41.12c15.83-16.74,41-16,56-3,15.85,13.68,19.46,37.07,6,54.78a39.61,39.61,0,0,1-18.83,13.62,41.31,41.31,0,0,1-23.49,1.23c-8-1.85-14.25-6.49-20.49-11.61-9,9-19.89,13.61-32.66,12.67a40.58,40.58,0,0,1-28.4-14.22c-12.75-14.58-12.52-37.4.26-52.23C150.58,28.78,178.34,19.9,200.4,41.12ZM150.15,68.71a19.9,19.9,0,0,0,2.7,10.37c5.79,10.31,18.12,13.45,27.45,7a20.51,20.51,0,0,0,7.33-25.64c-3-6.54-8.08-10.8-15.42-11.73C160.37,47.2,150.17,56.57,150.15,68.71Zm79.16-20.2a39.6,39.6,0,0,0-4.43.76,19.75,19.75,0,0,0-14.25,16.52A20.87,20.87,0,0,0,220.89,87a17.06,17.06,0,0,0,10.57,2.37c12-1.49,20.39-13.26,17.75-24.89A20.35,20.35,0,0,0,229.31,48.51Z"/><path class="cls-2" d="M83.13,100.58a35.31,35.31,0,0,1-15.43,7.89C48.11,113,28.55,99.58,26.08,79.93a40.41,40.41,0,0,1-.3-4.68q0-17.89,0-35.79A11.27,11.27,0,0,1,48,37a14,14,0,0,1,.26,3c0,12.06,0,24.11,0,36.16a11.15,11.15,0,0,0,7,10.75A11.7,11.7,0,0,0,71.86,76.09q0-18.35,0-36.7a11.3,11.3,0,0,1,22.15-3,13.31,13.31,0,0,1,.4,3.57c0,12,0,24,0,36,0,6.33,4,11,10.09,11.88A11.64,11.64,0,0,0,118,76.21c0-12.06,0-24.11,0-36.16,0-5.75,3.11-9.92,8.35-11.39,6.16-1.74,12.82,2.26,13.91,8.43a2.86,2.86,0,0,1-.64,2.18c-14.08,14.54-16.16,36.07-5,52.71a2.07,2.07,0,0,1-.13,2.82,34.72,34.72,0,0,1-50.07,6.78Z"/><path class="cls-2" d="M312,33.74a35.58,35.58,0,0,0-.83,3.71c-.36,3.11,1,5.79,2.58,8.3,6,9.66,12.12,19.25,18.1,28.92a4.76,4.76,0,0,1,.59,3.15c-3.74,19.52-22,33.17-42.29,31.9-6.47-.41-13-.19-19.49-.28A11,11,0,0,1,259.67,101a3.4,3.4,0,0,1,1-3.56,40,40,0,0,0,11.14-22.5c2.07-13.5-2.21-25-11.21-35.07a3,3,0,0,1-.77-3.22c1.32-4.48,4.94-7.85,9.64-7.89,9.62-.07,19.25,0,28.85.5C303.12,29.46,307.66,31.35,312,33.74ZM281.78,88.28c1.75,0,3.33,0,4.92,0,3.36-.1,6.82.22,10.07-.46,9-1.86,14.1-9.18,14-19.23-.06-8.38-6.48-16.49-14.77-18-3.75-.68-7.69-.38-11.54-.51-.89,0-1.78,0-2.7,0Z"/><path class="cls-2" d="M348.53,59.18,356.69,46c2.65-4.27,5.4-8.48,7.94-12.81,3.24-5.53,10.57-5.89,14.82-3.21,4.69,2.95,5.95,9,2.86,14C375.11,55.62,368,67.26,360.7,78.85a11,11,0,0,0-1.77,6.31c.1,4,0,8,0,11.94,0,6.54-5.72,10.56-10.87,10.4-4.59-.13-9.42-3.6-9.74-9.1-.26-4.39-.21-8.8-.16-13.19a11.4,11.4,0,0,0-1.86-6.47c-6.79-10.67-13.5-21.38-20.22-32.09a36.9,36.9,0,0,1-2.31-4.11,10.07,10.07,0,0,1,3.86-12.91c4.87-2.71,11.18-1.44,14.18,3.15,4.38,6.68,8.52,13.51,12.77,20.27C345.83,55,347.08,56.92,348.53,59.18Z"/></svg>