<svg id="Layer_1" data-name="Layer 1" xmlns="http://www.w3.org/2000/svg" viewBox="0 0 181.29 198.66" fill="#DFE4E2"><defs><style>.cls-1{fill:#DFE4E2;}</style></defs><path class="cls-1" d="M88.57,47.82c15.62,0,31.23.09,46.85-.07,3.13,0,4.1,1,3.83,4a40.52,40.52,0,0,0,0,7.63c.33,3.18-1,3.81-4,3.8-26.38-.1-52.75,0-79.12-.05-2,0-3.76-.2-3.5,2.75.14,1.57.55,2.32,2.21,2.28,2.55-.06,5.09,0,7.64,0,24.4,0,48.81.06,73.22-.06,2.78,0,3.53.77,3.49,3.47-.15,9.48-.18,19,0,28.45.05,3-1,3.67-3.79,3.66q-39.39-.12-78.78,0c-1.44,0-3.61-1.07-4,1.88s1,3.39,3.58,3.38q39.21-.09,78.42,0c4.47,0,4.48,0,4.48,4.56,0,15.73-.06,31.46.07,47.19,0,3-.64,4.48-4,4.12a40.52,40.52,0,0,0-7.63,0c-3,.27-3.74-1-3.62-3.78.18-4.62,0-9.26.06-13.88,0-2.12-.75-2.74-2.83-2.81-11-.39-10.91-.44-11,10.61,0,3.09,1.35,7-.61,9-2.12,2.16-6.15.68-9.34.72-5.47.07-5.06.81-5.09-4.9,0-4.28,0-8.56,0-12.84,0-1.93-.71-2.7-2.66-2.63-2.77.1-5.56.13-8.33,0-2.18-.11-2.78.83-2.74,2.86.1,4.86,0,9.72.08,14.57.06,2.21-.59,3.16-2.93,3-3.23-.15-6.47-.12-9.71,0-1.95.07-2.64-.67-2.61-2.62.09-4.85-.12-9.72.08-14.57.11-2.68-.87-3.47-3.4-3.27a37.31,37.31,0,0,1-6.93,0c-2.89-.29-3.51,1-3.41,3.59.18,4.62,0,9.25.09,13.88.06,2.17-.49,3.14-2.86,3-3.11-.18-6.24-.12-9.36,0-2,.07-3-.44-2.93-2.68.09-10.06.13-20.12,0-30.18,0-3,1.82-2.63,3.65-2.63H96.81c8,0,16,0,23.94,0,1.9,0,3.4-.09,3.38-2.68s-1.61-2.62-3.45-2.62q-39,0-78.08,0c-5.73,0-4.91.35-4.93-5.1,0-8.9.1-17.81-.07-26.71-.05-2.92.89-3.7,3.74-3.69q39.39.15,78.78,0c1.41,0,3.47.92,3.91-1.6.48-2.72-.68-3.56-3.45-3.55q-39,.13-78.08,0c-4.83,0-4.84,1.12-4.84-4.82,0-9,.12-18,0-27.07-.06-3,1-3.69,3.77-3.67,15.73.12,31.46.06,47.19.06Z"/></svg>