<svg id="Layer_1" data-name="Layer 1" xmlns="http://www.w3.org/2000/svg" viewBox="0 0 237.89 174.24" fill="#DFE4E2"><defs><style>.cls-1{fill:#DFE4E2;}</style></defs><path class="cls-1" d="M38.31,43.08c1.07,3.68,2,7.42,3.24,11,2.8,8.06,6.81,15.4,13.1,21.34,1.38,1.31,2.2,2,3.12-.6,5.91-16.6,17.12-28.11,33.63-34.41a5.24,5.24,0,0,0,1-.52,2.55,2.55,0,0,0,.47-.6c-7.5-5.2-9.49-10.91-5.85-16.81a11.3,11.3,0,0,1,15-3.77c6,3.38,6.88,9.65,2.46,18.2,1.93.67,3.84.06,5.68.14s3.86,0,6.34,0c-2.63-4.26-4.62-8.42-2.36-13.22a10.94,10.94,0,0,1,5.27-5.48,11.17,11.17,0,0,1,14.31,4.18c3.55,5.79,1.88,10.68-6,17,2.81,1.28,5.57,2.37,8.17,3.73,12.83,6.74,21.91,16.85,26.71,30.56,1.12,3.19,2,3.17,4.23.89,7.53-7.65,11.76-17,14.33-27.18.28-1.13.55-2.27.85-3.4.09-.36.28-.69.82-2a46.68,46.68,0,0,1,.48,12.59C182.18,70.57,178.13,85.22,166.8,97a6.05,6.05,0,0,0-1.46,3.52c-4.13,27.56-27.08,47.77-54.34,47.89-28.08.11-51.33-19.87-55.6-47.85a7.49,7.49,0,0,0-1.89-4.14C39.72,81.21,36.79,62.77,38.31,43.08Zm95.76,86.13a43.93,43.93,0,0,0,17.06-21c.85-2.15-.13-2.44-2-2.27-9,.8-16.46-2.68-22.74-8.9-8.42-8.34-12.57-18.86-15.1-30.16-.17-.74.32-1.93-1.29-2-1.56,7.37-3.59,14.6-7.4,21.16-7,12.1-16.1,21-31.52,19.86-1.81-.14-2,.79-1.47,2.15a43.35,43.35,0,0,0,16.89,21c-1.69-10.37.29-15.17,6.86-17.12A11.23,11.23,0,0,1,106.63,118a11,11,0,0,1,.41,8c-1.46,4.49-5,6.59-9.51,7.94,8.12,3.38,20.35,3.18,25.29-.18-7.8-2.65-11.07-8-9-14.57a11.06,11.06,0,0,1,13.6-7.3C134,113.78,136.44,119.63,134.07,129.21ZM75.78,84c3.14.1,7.42-1.27,11.4-3.61C98,74.08,103.69,64,107.56,52.54c1-2.85.22-3.38-2.55-3-17.2,2.49-28.78,12.12-35.4,27.91C67.16,83.32,67.81,84,75.78,84Zm69.76,0c2.13-.11,3.29-.2,4.46-.23,2.28-.08,2.82-1.19,2.32-3.34-3.64-15.59-21.21-30.22-37.22-31-2.31-.12-2.75.41-2,2.58a61.1,61.1,0,0,0,8.33,17.05C127.64,77.6,135.41,83.62,145.54,84.06Z"/></svg>