<svg id="Layer_1" data-name="Layer 1" xmlns="http://www.w3.org/2000/svg" viewBox="0 0 126.64 194.33" fill="#DFE4E2"><defs><style>.cls-1{fill:#DFE4E2;}</style></defs><path class="cls-1" d="M76.48,110.75c1.14-3.88,2.12-7.77,4.44-11.11,1.75-2.52,3.77-4.71,6.82-5.64a7.55,7.55,0,0,1,9.71,7.21c0,1.58-.33,3-2.23,3.12-1.66.11-2.31-1-2.63-2.45-.74-3.38-1.66-3.8-4.52-1.92-3.74,2.45-5,6.39-6.06,10.43-.29,1.17.32,1.64,1.52,1.38,5.72-1.27,10.38.72,14.81,4.29a21.76,21.76,0,0,0,12.14,4.53,13,13,0,0,1-13,1.54c-4.28-1.72-8.58-3-13.28-2.91-2.14.06-2.82.76-2.32,2.82,1,4,2.26,7.73,5.54,10.43,2.88,2.38,4.45,1.9,5.26-1.61.31-1.39,1-2.29,2.46-2.21s2.3,1.13,2.35,2.7a7.29,7.29,0,0,1-3.67,6.71,7.12,7.12,0,0,1-7.92,0c-5-3.09-7.39-7.95-8.56-13.44-.63-3-1.43-2.64-3.19-.82-3.71,3.85-7.52,7.61-11.37,11.34-1.58,1.53-1.43,2.24.78,2.67a24.32,24.32,0,0,1,11.35,5.41c5.26,4.55,4.83,11.42-.78,14.15a6.7,6.7,0,0,1-3.9.67A2.2,2.2,0,0,1,68,156c-.09-1.43.63-2.2,2.07-2.54,3.7-.88,4.17-2.49,1.67-5.5s-6.1-4.36-9.81-5.34c-1.45-.38-1.88.27-1.57,1.58,1.32,5.57-.51,10.17-4,14.56A19.28,19.28,0,0,0,52,170.87c-3.12-2.75-3.89-8.12-1.79-13a36.62,36.62,0,0,0,3.06-12.59c.16-2.62-.85-3.47-3.33-2.8-4.37,1.18-8.63,2.55-11,6.87-1.15,2.12-1.36,3.91,1.94,4,1.61,0,3,.7,2.8,2.58-.19,2.08-1.84,2.33-3.49,2.16a7.45,7.45,0,0,1-6.34-4.3A7.63,7.63,0,0,1,35,145.36c3.17-4.09,7.52-6.17,12.4-7.38.91-.23,2.3.06,2.55-1.15s-1-1.62-1.7-2.31c-3.67-3.73-7.42-7.4-11.08-11.15-1.53-1.57-2.16-1.42-2.68.79-1.21,5.06-3.16,9.78-7.43,13.13-5,3.93-11.5,1.73-12.77-4.35-.38-1.83-.5-3.83,1.94-4.2,2.17-.33,2.9,1.21,2.9,3.15,0,2.45,1.36,2.44,3.11,1.77,3.09-1.18,7.07-6.8,7.15-10,.05-1.59-.89-1.49-2-1.36-3.43.43-6.89.68-10.29,1.32a9.18,9.18,0,0,1-6.37-1.2c-3.13-1.71-6.34-3.27-9.54-4.85-1.49-.74-1.6-1.49-.08-2.25,4.08-2,8-4.56,12.33-5.93,3.46-1.11,7.24.6,10.9.86,1.63.11,3.77,1.3,4.75,0s-.49-3.35-1.17-4.94a10.78,10.78,0,0,0-5.53-6c-1.79-.78-3.33-1-3.31,1.77,0,1.9-.67,3.55-2.86,3.16s-2.42-2.31-2-4.23a7.54,7.54,0,0,1,5.63-6c3.78-1,6.77.79,9.2,3.48,3,3.31,4.51,7.39,5.47,11.68.31,1.41.67,2.19,2.06.86L51.1,96.12c-5.68-1.61-10.35-3-14.14-6.24-4.94-4.25-5.33-10-.88-13.44a7.78,7.78,0,0,1,4.64-1.68,2.56,2.56,0,0,1,2.92,2.18c.24,1.63-.81,2.37-2.3,2.71-3.58.81-4,2-1.76,5,2.09,2.83,5.12,4.21,8.36,5.24,1.81.59,2.18-.37,2-1.88-.35-2.88-.58-5.78-1.14-8.62a11.62,11.62,0,0,1,1.32-8.65c1.7-2.87,3.08-5.93,4.55-8.93.74-1.51,1.49-1.57,2.23-.09,2,4.08,4.17,8.14,6,12.33,1,2.22-.27,4.59-.35,6.91-.06,1.78-.46,3.53-.64,5.31-.46,4.35-.07,4.65,4,2.82,2.66-1.18,5.26-2.54,6.64-5.33,1-2,1.63-3.94-1.82-4-1.84-.06-3.07-1-2.7-3s2-2.13,3.68-1.89A7.49,7.49,0,0,1,78,79.71c1.23,3.15.25,6-1.76,8.4-3.28,4-7.82,5.87-12.64,7-2.31.56-2.62,1.08-.86,2.78,4.26,4.1,8.41,8.3,12.63,12.45C75.61,110.57,76,110.59,76.48,110.75Zm-24,18.91c0-3,0-5.47,0-8,0-.87-.32-1.64-1.29-1.59-2.59.13-5.25-.34-7.72.59Zm11.21-16.55c1.27,0,2.27,0,3.26,0,1.33-.07,2-.61.87-1.81-2.15-2.23-4.36-4.41-6.58-6.58-.57-.57-1.52-1.07-1.71.16-.38,2.4-.91,5-.06,7.24C60.18,114,62.44,112.75,63.69,113.11Zm-11.82-9a3.06,3.06,0,0,0-2.24,1.35c-1.81,1.77-3.61,3.57-5.38,5.39-1.27,1.3-.66,1.76.85,2.05,6.6,1.26,7.56.47,7.1-6.08C52.14,106,52,105.12,51.87,104.14Zm7.47,25.45c3.57-2.5,5.81-5.52,8.51-8,1.13-1.06.37-1.39-.73-1.59-6.83-1.24-8-.26-7.92,6.68C59.2,127.4,59.27,128.16,59.34,129.59Z"/></svg>