<svg id="Layer_1" data-name="Layer 1" xmlns="http://www.w3.org/2000/svg" viewBox="0 0 221.95 175.52"><defs><style>.cls-1{fill:#DFE4E2;}</style></defs><path class="cls-1" d="M31.46,34.47c0-4,.09-8,0-12.06-.06-2.18.77-3.12,2.94-2.93a12.35,12.35,0,0,0,2.72,0c3.4-.51,4.65.81,4.42,4.29-.28,4.13,0,8.3-.1,12.45-.08,2.46.72,3.42,3.32,3.46,6.84.11,6.83.23,6.82-6.42,0-3.5.14-7,0-10.51-.12-2.61.94-3.52,3.41-3.26a14.06,14.06,0,0,0,3.11,0c2.81-.35,3.61,1,3.51,3.58-.15,4.28.11,8.57-.07,12.84-.12,2.91,1,3.85,3.83,3.79,7.66-.14,6.3.23,6.39-6.13.05-3.64.11-7.27,0-10.9-.09-2.31.66-3.23,3.08-3.21,8.44.09,6.67-.35,6.82,6.43.08,3.5.11,7,0,10.51-.08,2.27.64,3.49,3.08,3.24a5.08,5.08,0,0,1,.78,0c6.37.1,6.37.1,6.37-6.14,0-3.64.11-7.27,0-10.9-.09-2.39.88-3.35,3.2-3.09a5.08,5.08,0,0,0,.78,0c6-.07,6-.07,6,5.73,0,3.76.12,7.53,0,11.28-.1,2.43.92,3.09,3.2,3.16,7,.22,7,.3,7-6.73,0-3.5.06-7,0-10.51-.06-2.18.83-3.1,3-2.93a14.69,14.69,0,0,0,3.11,0c3-.38,4.17.76,4,3.91-.26,4.26,0,8.56-.12,12.84-.11,2.53.75,3.62,3.31,3.4a19.48,19.48,0,0,1,3.5,0c2.47.22,3.51-.7,3.42-3.31-.16-4.4.08-8.82-.08-13.23-.1-2.67.76-3.9,3.53-3.59a14.06,14.06,0,0,0,3.11,0c2.84-.32,3.56,1.07,3.46,3.66-.16,4,.21,8.07-.11,12.06-.31,3.76,1.22,4.92,4.65,4.41a2.41,2.41,0,0,1,.38,0c5.13,0,5.13,0,5.14-5,0-3.89.1-7.78,0-11.67-.09-2.43.63-3.71,3.27-3.46a24.06,24.06,0,0,0,3.89,0c2.18-.16,3,.78,3,2.95-.1,4.54.08,9.09-.09,13.62-.09,2.7.86,3.64,3.58,3.59,8-.17,6.44.41,6.56-6.31.07-3.63.1-7.26,0-10.89-.07-2.19.78-3.12,2.95-2.94a15.39,15.39,0,0,0,3.11,0c3-.39,4.08.84,4,3.92q-.27,11.28,0,22.57c.09,3-1,3.79-3.8,3.65-4.4-.22-8.83,0-13.23-.1-2.33-.07-3.39.76-3.16,3.15a18.6,18.6,0,0,1,0,3.5c-.29,2.81,1.05,3.59,3.66,3.51,4.27-.14,8.56.11,12.84,0,2.63-.11,3.71.65,3.65,3.46-.15,7.88.41,6.46-6.31,6.55-3.63,0-7.27.07-10.9,0-2.16-.06-3.17.77-2.94,3a2.54,2.54,0,0,1,0,.39c.06,8-.52,6.71,6.5,6.79,3.38,0,6.76.15,10.12,0,2.76-.16,3.59.93,3.56,3.6-.07,7.88.11,6.31-6.07,6.42-3.63.06-7.27.11-10.9,0-2.32-.08-3.41.72-3.2,3.12a14.69,14.69,0,0,1,0,3.11c-.41,3.08.83,4.15,3.94,4,4.27-.24,8.56,0,12.84-.1,2.53-.08,3.63.85,3.36,3.38a7.87,7.87,0,0,0,0,1.94c.58,3.67-.75,5.16-4.63,4.81s-7.79.07-11.67-.12c-2.76-.13-4,.59-3.89,3.64.23,7.46-.57,6.38,6.48,6.46,3.63,0,7.26.06,10.89,0,2,0,2.82.75,2.81,2.75q-.06,12.26,0,24.52c0,1.9-.65,2.72-2.7,2.87-7.32.52-7.32.58-7.32-6.75,0-3.38-.11-6.75,0-10.12.09-2.28-.58-3.48-3-3.22a9.56,9.56,0,0,1-2.33,0c-3.68-.57-5.13.79-4.81,4.64.32,4,0,8,.11,12.06.09,2.51-.8,3.68-3.36,3.36a6.77,6.77,0,0,0-.78,0c-6,.06-6,.06-6-5.75,0-3.64-.11-7.27,0-10.9.09-2.42-.57-3.52-3.24-3.46-8.35.18-6.78-.62-6.91,6.74a88.14,88.14,0,0,0,.05,9.34c.3,3.38-1.12,4.44-4.23,4a9.64,9.64,0,0,0-2.34,0c-2.76.34-3.64-.91-3.54-3.58.16-4.4-.07-8.82.09-13.23.09-2.61-.94-3.34-3.42-3.28-8.19.17-6.64-.54-6.77,6.49-.07,3.37-.16,6.76,0,10.12.16,2.76-.91,3.58-3.58,3.51-7.31-.2-6.37.72-6.43-6.48,0-3.5-.11-7,0-10.5.09-2.4-.88-3.32-3.21-3.12a17.8,17.8,0,0,1-3.5,0c-2.72-.29-3.65.82-3.53,3.55.2,4.4-.06,8.82.1,13.23.1,2.57-.83,3.38-3.36,3.33-8-.17-6.44.43-6.58-6.28-.07-3.63-.09-7.27,0-10.9.07-2.19-.81-2.88-3-3-7.29-.3-7.29-.37-7.29,6.84,0,3.38-.1,6.75,0,10.12.09,2.31-.66,3.21-3.1,3.16-8.2-.17-6.69.59-6.81-6.43-.07-3.63-.08-7.27,0-10.9.06-2-.76-2.66-2.73-2.79-7.49-.49-7.48-.56-7.49,7,0,3.37-.07,6.74,0,10.11.07,2.13-.68,3.19-2.91,3a9.08,9.08,0,0,0-2.33,0c-3.68.56-5.12-.8-4.81-4.65.33-4.13,0-8.3.1-12.45.06-2.16-.67-2.91-2.88-3-7.27-.29-7.26-.37-7.26,6.83,0,3.38-.09,6.75,0,10.12.09,2.33-.75,3.13-3.15,3.16-6.85.08-6.85.19-6.86-6.44,0-6.36.24-12.73-.1-19.07-.2-3.93,1.25-4.91,4.88-4.65,4,.29,8-.05,12.06.1,2.55.09,3.38-.83,3.31-3.37-.23-7.88.84-6.63-6.51-6.73-3.37-.05-6.75-.14-10.12,0-2.63.13-3.68-.69-3.59-3.5.24-7.73-.57-6.42,6.35-6.55,3.63-.07,7.27-.09,10.9,0,2.15.05,3.17-.77,2.92-3,0-.12,0-.26,0-.39-.12-8,.81-6.61-6.44-6.75-3.37-.06-6.76-.14-10.12,0-2.65.13-3.69-.69-3.59-3.5.28-7.56-.85-6.42,6.32-6.53,3.64,0,7.27-.08,10.9,0,2.12.06,3-.66,3-2.91-.15-8.65.85-7.06-6.8-7.21-3.24-.06-6.5-.19-9.73,0-3,.21-3.77-1-3.67-3.83.27-7.12-.81-6.08,6.27-6.18,3.37,0,6.75-.15,10.12,0,2.8.15,4-.7,3.83-3.71-.3-7.41.93-6.35-6.4-6.45-3.5-.05-7-.12-10.51,0-2.59.12-3.39-.94-3.29-3.43C31.58,42.26,31.46,38.37,31.46,34.47Zm111,16.24-.21-.83H71.35c.2.57.2.9.37,1Q88.37,64,105,77a2.46,2.46,0,0,0,3.46.14Q125.47,63.9,142.44,50.71ZM70.93,119.52h72.13c-1.11-1-1.54-1.5-2-1.88-10.62-8.28-21.28-16.5-31.84-24.86-2.05-1.62-3.36-1-5.05.38-7.42,5.85-15,11.53-22.35,17.45C78.3,113.41,74.4,115.75,70.93,119.52Zm80.25-6.78c.53-.44.7-.51.7-.59q.13-26.84.23-53.67c0-2.61-1.28-1.49-2.38-.63q-16.3,12.63-32.61,25.24c-1.49,1.14-1.76,2-.12,3.21Q134.08,99.45,151.18,112.74ZM61.53,84.6h0c0,8.15,0,16.31,0,24.46,0,1.08-.58,2.56.73,3.14,1,.47,1.86-.69,2.63-1.29,10.44-8.06,20.82-16.21,31.31-24.22,2-1.55,2-2.4,0-3.94-10.49-8-20.87-16.15-31.34-24.18-.83-.64-1.6-2.16-2.89-1.36-.9.56-.48,1.92-.48,2.93Q61.52,72.37,61.53,84.6Z"/></svg>